<svg fill="#FFFFFF" xmlns="http://www.w3.org/2000/svg"  viewBox="0 0 64 64" width="64px" height="64px"><path d="M 14 2 A 5 5 0 0 0 9 7 L 9 52 L 4 52 A 1 1 0 0 0 3 53 L 3 57 A 5 5 0 0 0 8 62 L 48 62 A 5 5 0 0 0 53 57 L 53 14 L 60 14 A 1 1 0 0 0 61 13 L 61 7 A 5 5 0 0 0 56 2 L 14 2 z M 14 4 L 52.029297 4 A 4.924 4.924 0 0 0 51 7 L 51 57 A 3 3 0 0 1 45 57 L 45 53 A 1 1 0 0 0 44 52 L 11 52 L 11 7 A 3.009 3.009 0 0 1 14 4 z M 56.087891 4.0019531 A 3 3 0 0 1 59 7 L 59 12 L 53 12 L 53 7 A 3 3 0 0 1 56.087891 4.0019531 z M 20.882812 10.001953 A 4 4 0 0 0 17 14 L 17 16 A 3.978 3.978 0 0 0 18.107422 18.746094 A 6 6 0 0 0 15 24 L 15 25 A 1 1 0 0 0 16 26 L 26 26 A 1 1 0 0 0 27 25 L 27 24 A 6 6 0 0 0 23.892578 18.746094 A 3.978 3.978 0 0 0 25 16 L 25 14 A 4 4 0 0 0 20.882812 10.001953 z M 21 12 A 2 2 0 0 1 23 14 L 22.828125 14 A 1.009 1.009 0 0 1 22.121094 13.707031 L 21.707031 13.292969 A 1 1 0 0 0 20.292969 13.292969 L 19.878906 13.707031 A 1.009 1.009 0 0 1 19.171875 14 L 19 14 A 2 2 0 0 1 21 12 z M 33 12 L 33 14 L 35 14 L 35 12 L 33 12 z M 37 12 L 37 14 L 47 14 L 47 12 L 37 12 z M 21 15.378906 A 2.973 2.973 0 0 0 22.828125 16 L 23 16 A 2 2 0 0 1 19 16 L 19.171875 16 A 2.973 2.973 0 0 0 21 15.378906 z M 33 16 L 33 18 L 47 18 L 47 16 L 33 16 z M 21 20 A 3.953 3.953 0 0 1 22.509766 20.300781 A 1.98 1.98 0 0 1 19.490234 20.300781 A 3.953 3.953 0 0 1 21 20 z M 33 20 L 33 22 L 47 22 L 47 20 L 33 20 z M 17.890625 21.515625 A 4 4 0 0 0 24.109375 21.515625 A 3.961 3.961 0 0 1 25 24 L 17 24 A 3.961 3.961 0 0 1 17.890625 21.515625 z M 33 24 L 33 26 L 47 26 L 47 24 L 33 24 z M 20.882812 30.001953 A 4 4 0 0 0 17 34 L 17 36 A 3.978 3.978 0 0 0 18.107422 38.746094 A 6 6 0 0 0 15 44 L 15 45 A 1 1 0 0 0 16 46 L 26 46 A 1 1 0 0 0 27 45 L 27 44 A 6 6 0 0 0 23.892578 38.746094 A 3.978 3.978 0 0 0 25 36 L 25 34 A 4 4 0 0 0 20.882812 30.001953 z M 21 32 A 2 2 0 0 1 23 34 L 22.828125 34 A 1.009 1.009 0 0 1 22.121094 33.707031 L 21.707031 33.292969 A 1 1 0 0 0 20.292969 33.292969 L 19.878906 33.707031 A 1.009 1.009 0 0 1 19.171875 34 L 19 34 A 2 2 0 0 1 21 32 z M 33 32 L 33 34 L 35 34 L 35 32 L 33 32 z M 37 32 L 37 34 L 47 34 L 47 32 L 37 32 z M 21 35.378906 A 2.973 2.973 0 0 0 22.828125 36 L 23 36 A 2 2 0 0 1 19 36 L 19.171875 36 A 2.973 2.973 0 0 0 21 35.378906 z M 33 36 L 33 38 L 47 38 L 47 36 L 33 36 z M 21 40 A 3.953 3.953 0 0 1 22.509766 40.300781 A 1.98 1.98 0 0 1 19.490234 40.300781 A 3.953 3.953 0 0 1 21 40 z M 33 40 L 33 42 L 47 42 L 47 40 L 33 40 z M 17.890625 41.515625 A 4 4 0 0 0 24.109375 41.515625 A 3.961 3.961 0 0 1 25 44 L 17 44 A 3.961 3.961 0 0 1 17.890625 41.515625 z M 33 44 L 33 46 L 47 46 L 47 44 L 33 44 z M 5 54 L 43 54 L 43 57 A 4.985 4.985 0 0 0 44 60 L 8 60 A 3.009 3.009 0 0 1 5 57 L 5 54 z"/></svg>